<svg id="Icons" height="512" viewBox="0 0 74 74" width="512" xmlns="http://www.w3.org/2000/svg"><path d="m7.15 57.12v-.01" fill="none" stroke="rgb(0,0,0)" stroke-linecap="round" stroke-linejoin="round" stroke-width="2"/><path d="m66.11 35.58h-5.19v-11.81a1 1 0 0 0 -1-1h-6.94a1 1 0 0 0 -1 1v11.81h-10.47v-14.17a1 1 0 0 0 -1-1h-6.94a1 1 0 0 0 -1 1v14.17h-10.55v-11.81a1 1 0 0 0 -1-1h-6.94a1 1 0 0 0 -1 1v11.81h-5.19a5.269 5.269 0 0 0 -5.26 5.27v10.88a6.812 6.812 0 0 0 2.02 4.87 7.134 7.134 0 0 0 2.1 1.44 6.984 6.984 0 0 0 2.77.58 6.9 6.9 0 0 0 6.88-6.89v-5.03a2.219 2.219 0 0 1 2.22-2.22 2.23 2.23 0 0 1 2.23 2.22v7.09a6.846 6.846 0 0 0 6.83 6.83 6.833 6.833 0 0 0 6.83-6.83v-6.92a2.341 2.341 0 0 1 .68-1.64 2.282 2.282 0 0 1 1.64-.68 2.32 2.32 0 0 1 2.31 2.32v2.65a6.805 6.805 0 0 0 13.61 0v-2.85a2.373 2.373 0 0 1 2.4-2.4 2.407 2.407 0 0 1 2.4 2.4v4.66a6.91 6.91 0 1 0 13.82 0v-10.48a5.269 5.269 0 0 0 -5.26-5.27z"/><path d="m56.45 20.34a5.48 5.48 0 0 0 5.48-5.47c0-2.64-3.87-8.71-4.64-9.9a1.05 1.05 0 0 0 -1.68 0c-.77 1.19-4.64 7.26-4.64 9.9a5.48 5.48 0 0 0 5.48 5.47z"/><path d="m37.04 17.83a5.48 5.48 0 0 0 5.47-5.48c0-2.64-3.86-8.71-4.63-9.9a1.05 1.05 0 0 0 -1.68 0c-.78 1.19-4.64 7.26-4.64 9.9a5.488 5.488 0 0 0 5.48 5.48z"/><path d="m17.55 20.34a5.48 5.48 0 0 0 5.48-5.47c0-2.64-3.87-8.71-4.64-9.9a1.009 1.009 0 0 0 -1.68 0c-.77 1.19-4.64 7.26-4.64 9.9a5.48 5.48 0 0 0 5.48 5.47z"/><path d="m58.161 57.639a8.9 8.9 0 0 1 -2.611-6.309v-4.66a.405.405 0 0 0 -.4-.4.438.438 0 0 0 -.311.13.426.426 0 0 0 -.089.27v2.85a8.805 8.805 0 1 1 -17.61 0v-2.65a.319.319 0 0 0 -.31-.32.3.3 0 0 0 -.209.077.36.36 0 0 0 -.111.243v6.92a8.84 8.84 0 0 1 -8.83 8.83 8.846 8.846 0 0 1 -8.83-8.83v-7.09a.232.232 0 0 0 -.23-.22.18.18 0 0 0 -.14.047.22.22 0 0 0 -.08.173v5.03a8.864 8.864 0 0 1 -12.25 8.218v11.052a1 1 0 0 0 1 1h59.65a1 1 0 0 0 1-1v-11.413a8.909 8.909 0 0 1 -9.639-1.948z"/></svg>